<svg xmlns="http://www.w3.org/2000/svg" width="93" height="40" viewBox="0 0 196.207 80"><g transform="translate(-29)"><path d="M18.926-29.443v3.311H14.18V-5.244q0,1.963,1.26,1.963.908,0,1.084-1.318l3.047.293Q18.311.322,11.543.322q-8.057,0-8.057-6.855v-19.6H-.088v-3.311H3.486v-5.215A48.207,48.207,0,0,0,14.18-39.053v9.609ZM43.777-10.811l4.307,1.26Q47.409.674,36.013.674q-14.766,0-14.766-14.736,0-7.148,3.926-11.719a12.652,12.652,0,0,1,10.049-4.57q12.8,0,12.8,16.523H32.439q0,11.6,5.889,11.6,5.508,0,5.508-6.562Q43.835-9.668,43.777-10.811ZM32.409-17.139H38.8q0-10.312-3.105-10.312-2.812,0-3.164,7.646Zm36.452-12.3v3.311H64.116V-5.244q0,1.963,1.26,1.963.908,0,1.084-1.318l3.047.293Q68.246.322,61.479.322q-8.057,0-8.057-6.855v-19.6H49.848v-3.311h3.574v-5.215a48.207,48.207,0,0,0,10.693-4.395v9.609ZM102.355-1.055A21.065,21.065,0,0,1,94.709.469q-5.508,0-6.8-3.428A8.994,8.994,0,0,1,80.236.615q-9.346,0-9.346-8.672,0-6.592,8.555-9.258Q87.3-19.775,87.3-23.232q0-4.541-4.512-4.541-5.215,0-5.215,4.395a11.29,11.29,0,0,0,.82,3.633l-5.3-1.025a17.556,17.556,0,0,1-.205-2.578q0-7.031,12.832-7.031,12.188,0,12.188,6.563v17.93q0,2.754,1.787,2.754a3.819,3.819,0,0,0,1.641-.615Zm-15.146-16.7a9.066,9.066,0,0,1-2.314,1.9q-3.311,1.934-3.311,6.5,0,5.859,2.285,5.859,3.34,0,3.34-5.8Zm23.005,8q5.156,0,5.156,5.156T110.214.557q-5.156,0-5.156-5.156T110.214-9.756Z" transform="translate(109.837 60.218)" fill="#fafafa"/><g transform="translate(29)"><path d="M675.725,487.59h0c-.143.014-.286.025-.429.032h-.025c-.14.007-.279.015-.418.015h-.185c-.261,0-.52-.011-.777-.027-.08,0-.16-.013-.24-.02-.179-.015-.357-.033-.534-.056q-.132-.017-.263-.037c-.176-.026-.349-.057-.522-.091-.077-.015-.154-.029-.231-.045a11.957,11.957,0,0,1-1.552-.448l-.2-.075c-.268-.1-.534-.211-.792-.332a12.171,12.171,0,0,1-4.044-3.06q-.178-.205-.346-.418c-.128-.162-.25-.327-.369-.495-.038-.053-.073-.107-.11-.16-.081-.118-.16-.237-.237-.357q-.058-.091-.114-.183-.112-.183-.217-.371c-.031-.056-.063-.111-.094-.167a12.206,12.206,0,0,1-.527-1.1c-.024-.059-.046-.118-.07-.178q-.079-.2-.151-.4c-.024-.067-.048-.135-.07-.2-.046-.135-.088-.271-.13-.408-.018-.061-.037-.121-.054-.183a12,12,0,0,1-.27-1.194c-.011-.063-.02-.127-.03-.19-.022-.141-.042-.283-.059-.425-.009-.072-.016-.143-.024-.215-.015-.143-.026-.286-.036-.43,0-.064-.01-.129-.013-.193-.01-.206-.017-.412-.016-.62V424.194A12.289,12.289,0,0,0,638,423.87v43.047a27.206,27.206,0,0,0,.225,3.5,26.255,26.255,0,0,0,.473,2.751,22.778,22.778,0,0,0,1.626,4.39,23.815,23.815,0,0,0,2.469,3.965A25.085,25.085,0,0,0,646,484.967a26.235,26.235,0,0,0,3.858,2.841,27.177,27.177,0,0,0,4.4,2.142,27.921,27.921,0,0,0,4.849,1.353h0a28.876,28.876,0,0,0,10.971-.113,27.8,27.8,0,0,0,5.33-1.667,26.9,26.9,0,0,0,4.744-2.623,23.214,23.214,0,0,0,2.778-2.532A12.04,12.04,0,0,1,675.725,487.59Z" transform="translate(-638 -411.774)" fill="#ffc400"/><path d="M675.724,487.59c-.143.014-.286.025-.429.032h-.025c-.14.007-.279.015-.418.015h-.185a12.078,12.078,0,0,1-9.157-4.19q-.178-.205-.346-.418a12.018,12.018,0,0,1-2.59-7.474V424.194A12.289,12.289,0,0,0,638,423.87v43.047a27.206,27.206,0,0,0,.225,3.5,26.255,26.255,0,0,0,.473,2.751,22.778,22.778,0,0,0,1.626,4.39,23.815,23.815,0,0,0,2.469,3.965A25.085,25.085,0,0,0,646,484.967a26.235,26.235,0,0,0,3.858,2.841,27.177,27.177,0,0,0,4.4,2.142,27.921,27.921,0,0,0,4.849,1.353h0a28.876,28.876,0,0,0,10.971-.113,27.8,27.8,0,0,0,5.33-1.667,26.9,26.9,0,0,0,4.744-2.623,23.209,23.209,0,0,0,2.778-2.532S678.505,487.35,675.724,487.59Z" transform="translate(-638 -411.774)" fill="#ffc400"/><path d="M710.092,538a12.083,12.083,0,1,1,0,24.165h0A12.087,12.087,0,0,1,698,550.082V538Z" transform="translate(-673.425 -486.3)" fill="#ff318b"/><path d="M662.575,480.743V456.578H650.146A12.146,12.146,0,0,0,638,468.724v12.019Z" transform="translate(-638 -438.227)" fill="#fafafa"/><path d="M710.337,480.743H698V456.578h12.337a12.143,12.143,0,0,1,12.238,12.046h0a12.118,12.118,0,0,1-12.118,12.118Z" transform="translate(-673.425 -438.227)" fill="#2edce3"/></g></g></svg>