<svg xmlns="http://www.w3.org/2000/svg" width="1170.001" height="343.847" viewBox="0 0 1170.001 343.847"><g transform="translate(-374.999 -610.927)"><ellipse cx="33.5" cy="81" rx="33.5" ry="81" transform="translate(375 702)" fill="#272727"/><ellipse cx="33.5" cy="81" rx="33.5" ry="81" transform="translate(1478 702)" fill="#272727"/><g transform="translate(-120.378 325.327)"><g transform="translate(38.5 285.6)"><g transform="translate(1212.849 140.564)"><path d="M-9777.751-643.7h-.221v-32.9c16.032-3.875,33-7.394,50.436-10.463,22.746-4,46.346-7.245,70.145-9.635A1008.452,1008.452,0,0,1-9553.6-702c32.059,0,64.218,1.464,95.586,4.352,31.428,2.893,62.828,7.285,93.329,13.055.334,4.622.5,9.366.5,14.1,0,6.258-.294,12.487-.874,18.516a986.16,986.16,0,0,0-188.544-18c-33.2,0-67,1.709-100.481,5.08-58.183,5.979-102.458,15.85-123.672,21.2Z" transform="translate(9777.971 702)" fill="#272727"/><path d="M-9777.972-652.09v0h0v-16.783c15.271-3.784,32.156-7.312,50.187-10.488,22.8-4.016,46.7-7.322,71.056-9.828,16-1.564,32.127-2.781,47.922-3.616,18.358-.971,36.934-1.463,55.21-1.463a1009.919,1009.919,0,0,1,189.1,17.695c.062,2.028.093,4.074.093,6.084,0,3.461-.09,6.936-.268,10.328a987.384,987.384,0,0,0-188.911-18.057,992.1,992.1,0,0,0-101.383,5.151A922.252,922.252,0,0,0-9777.972-652.09Z" transform="translate(9778.19 702)" fill="#fff"/><path d="M-9777.972-652.09v0h0v-5.078c15.549-3.955,32.452-7.6,50.242-10.822,23.513-4.264,48-7.681,72.768-10.157,33.021-3.32,66.923-5,100.764-5a996.025,996.025,0,0,1,189.726,18.032c-.044,1.674-.112,3.369-.2,5.041a996.125,996.125,0,0,0-189.535-17.994c-33.836,0-67.734,1.683-100.754,5A922.271,922.271,0,0,0-9777.972-652.09Z" transform="translate(9778.19 702)" fill="#bcbec0"/></g><g transform="translate(0 100.924)"><path d="M-7917.72-603.285c-32.274,0-64.649-1.484-96.224-4.41-31.637-2.932-63.24-7.384-93.932-13.231-.165-3.283-.248-6.622-.248-9.925a191.192,191.192,0,0,1,1.313-22.583,984.043,984.043,0,0,0,189.091,18.127c33.361,0,67.242-1.709,100.7-5.08,58.036-5.964,102.256-15.807,123.45-21.143v32.85c-15.824,3.856-32.728,7.375-50.242,10.462-22.7,4-46.287,7.241-70.116,9.635A1008.979,1008.979,0,0,1-7917.72-603.285Z" transform="translate(8565 702)" fill="#272727"/><path d="M-7917.941-611.015a1009.619,1009.619,0,0,1-190.173-17.9c-.006-.718-.009-1.351-.009-1.937,0-4.856.178-9.718.528-14.454a987.259,987.259,0,0,0,189.86,18.241,992.076,992.076,0,0,0,101.38-5.15,922.951,922.951,0,0,0,122.788-20.926v16.73c-15.054,3.731-32.408,7.358-50.187,10.489-22.8,4.016-46.7,7.322-71.055,9.828C-7849.292-612.724-7883.991-611.015-7917.941-611.015Z" transform="translate(8565 702)" fill="#fff"/><path d="M-7917.314-622.133h-.015a995.941,995.941,0,0,1-190.569-18.2c.081-1.691.185-3.393.309-5.061a995.6,995.6,0,0,0,190.42,18.177,1007.153,1007.153,0,0,0,100.592-5,922.6,922.6,0,0,0,123.009-20.98v5.079c-15.543,3.953-32.446,7.594-50.242,10.82-23.513,4.264-48,7.682-72.767,10.159C-7849.593-623.816-7883.486-622.133-7917.314-622.133Z" transform="translate(8565 702)" fill="#bcbec0"/></g><g transform="translate(1029.774 121.462)"><g transform="translate(0 75.969)"><g transform="translate(3.754 3.975)"><path d="M594.836,385.413a8.623,8.623,0,0,0-8.613-8.613h-71.11a8.623,8.623,0,0,0-8.613,8.613h0a8.438,8.438,0,0,0,8.613,8.392h71.11a8.3,8.3,0,0,0,8.613-8.392Z" transform="translate(-506.5 -376.8)" fill="#bcbec0"/></g><g transform="translate(3.754 8.392)"><path d="M515.333,383h71.11a8.446,8.446,0,0,0,7.288-4.2,9.134,9.134,0,0,1,1.1,4.2,8.439,8.439,0,0,1-8.613,8.392h-71.11A8.579,8.579,0,0,1,506.5,383a8.458,8.458,0,0,1,1.1-4.2C509.592,381.229,512.242,383,515.333,383Z" transform="translate(-506.5 -378.8)" fill="#f1f2f2"/></g><path d="M601.086,387.588A12.726,12.726,0,0,1,588.5,400.176h-71.11a12.588,12.588,0,0,1,0-25.176H588.5A12.726,12.726,0,0,1,601.086,387.588ZM588.5,392a4.417,4.417,0,0,0,0-8.834h-71.11a4.417,4.417,0,0,0,0,8.834Z" transform="translate(-504.8 -375)" fill="#272727"/></g><g transform="translate(3.754 3.975)"><path d="M594.836,351.013a8.623,8.623,0,0,0-8.613-8.613h-71.11a8.623,8.623,0,0,0-8.613,8.613h0a8.623,8.623,0,0,0,8.613,8.613h71.11a8.768,8.768,0,0,0,8.613-8.613Z" transform="translate(-506.5 -342.4)" fill="#bcbec0"/></g><g transform="translate(3.754 8.392)"><path d="M515.333,348.6h71.11a8.446,8.446,0,0,0,7.288-4.2,9.134,9.134,0,0,1,1.1,4.2,8.623,8.623,0,0,1-8.613,8.613h-71.11A8.623,8.623,0,0,1,506.5,348.6a8.458,8.458,0,0,1,1.1-4.2C509.592,346.829,512.242,348.6,515.333,348.6Z" transform="translate(-506.5 -344.4)" fill="#f1f2f2"/></g><g transform="translate(0 0)"><path d="M601.086,353.188A12.726,12.726,0,0,1,588.5,365.776h-71.11a12.588,12.588,0,0,1,0-25.176H588.5A12.582,12.582,0,0,1,601.086,353.188ZM588.5,357.6a4.417,4.417,0,0,0,0-8.834h-71.11a4.417,4.417,0,0,0,0,8.834Z" transform="translate(-504.8 -340.6)" fill="#272727"/></g></g><path d="M651.16,391.3H582.7v-36h68.46a16.069,16.069,0,0,1,16.121,16.121v3.533A15.982,15.982,0,0,1,651.16,391.3Z" transform="translate(619.108 -201.375)" fill="#f1f2f2"/><path d="M651.16,390.088H582.7V379.046h60.731a16.07,16.07,0,0,0,16.121-16.121v-3.533a14.58,14.58,0,0,0-.221-3.092,16.244,16.244,0,0,1,8.171,14.134v3.533A16.259,16.259,0,0,1,651.16,390.088Z" transform="translate(619.108 -200.167)" fill="#bcbec0"/><path d="M673.773,373.938v3.533a20.264,20.264,0,0,1-20.317,20.317H585a4.193,4.193,0,0,1-4.2-4.2v-36a4.193,4.193,0,0,1,4.2-4.2h68.46A20.6,20.6,0,0,1,673.773,373.938Zm-84.582,15.68h64.485a12.254,12.254,0,0,0,12.146-12.146v-3.533a12.254,12.254,0,0,0-12.146-12.146H589.192Z" transform="translate(616.812 -203.671)" fill="#272727"/><path d="M616.811,477.862H546.8a17.012,17.012,0,0,1-17-17V346.9a17.012,17.012,0,0,1,17-17h70.006Z" transform="translate(555.184 -232.068)" fill="#f1f2f2"/><rect width="24.513" height="147.742" transform="translate(1150.352 98.053)" fill="#bcbec0"/><path d="M623.182,332.175V479.917a4.193,4.193,0,0,1-4.2,4.2H548.98A21.113,21.113,0,0,1,528,463.133V349.18a21.113,21.113,0,0,1,20.98-20.98h70.006A4.152,4.152,0,0,1,623.182,332.175ZM614.79,475.942V336.371H548.98a12.818,12.818,0,0,0-12.809,12.809V463.133a12.818,12.818,0,0,0,12.809,12.809h65.81Z" transform="translate(553.009 -234.123)" fill="#272727"/><path d="M589.634,340.729c0-7.288-5.521-13.03-12.367-13.03h0c-6.846,0-12.367,5.963-12.367,13.03V472.571c0,7.288,5.521,13.03,12.367,13.03h0c6.846,0,12.367-5.963,12.367-13.03Z" transform="translate(597.598 -234.727)" fill="#f1f2f2"/><path d="M573.983,485.7a11.872,11.872,0,0,1-6.183-1.767,12.9,12.9,0,0,0,6.183-11.263V340.829a12.9,12.9,0,0,0-6.183-11.263,11.872,11.872,0,0,1,6.183-1.767c6.846,0,12.367,5.963,12.367,13.029V472.671C586.13,479.737,580.609,485.7,573.983,485.7Z" transform="translate(601.103 -234.606)" fill="#bcbec0"/><path d="M595.884,343.025V474.866c0,9.5-7.288,17.225-16.342,17.225S563.2,484.363,563.2,474.866V343.025c0-9.5,7.288-17.225,16.342-17.225A16.935,16.935,0,0,1,595.884,343.025Zm-8.171,131.841V343.025c0-4.859-3.754-9.054-8.171-9.054-4.638,0-8.171,3.975-8.171,9.054V474.866c0,4.859,3.754,9.054,8.171,9.054S587.713,479.946,587.713,474.866Z" transform="translate(595.544 -237.023)" fill="#272727"/><path d="M600.492,433.886H576.2V342.9h24.292a13.525,13.525,0,0,1,13.471,13.471v64.043A13.67,13.67,0,0,1,600.492,433.886Z" transform="translate(611.253 -216.359)" fill="#f1f2f2"/><path d="M593.363,434.007H582.1a13.525,13.525,0,0,0,13.471-13.471V356.271A13.525,13.525,0,0,0,582.1,342.8h11.263a13.525,13.525,0,0,1,13.471,13.471v64.264A13.67,13.67,0,0,1,593.363,434.007Z" transform="translate(618.383 -216.48)" fill="#bcbec0"/><path d="M620.235,358.567v64.264a17.483,17.483,0,0,1-17.446,17.446H578.5a4.193,4.193,0,0,1-4.2-4.2V345.1a4.193,4.193,0,0,1,4.2-4.2h24.292A17.97,17.97,0,0,1,620.235,358.567Zm-37.763,73.54h20.317a9.331,9.331,0,0,0,9.275-9.275V358.567a9.331,9.331,0,0,0-9.275-9.275H582.471Z" transform="translate(608.957 -218.776)" fill="#272727"/><g transform="translate(1080.788 159.004)"><g transform="translate(4.417 4.196)"><rect width="28.93" height="17.888" fill="#bcbec0"/></g><g transform="translate(4.417 13.03)"><rect width="28.93" height="8.834" fill="#f1f2f2"/></g><g transform="translate(0 0)"><path d="M565.222,361.8v17.888a4.193,4.193,0,0,1-4.2,4.2H532.1a4.193,4.193,0,0,1-4.2-4.2V361.8a4.193,4.193,0,0,1,4.2-4.2h29.151A4.013,4.013,0,0,1,565.222,361.8Zm-28.93,13.692h20.759v-9.717H536.292Z" transform="translate(-527.9 -357.6)" fill="#272727"/></g></g><g transform="translate(1200.483 140.454)"><line y1="54.989" transform="translate(4.196 3.975)" fill="#fff"/><path d="M586.3,349.2a4.193,4.193,0,0,0-4.2,4.2v54.989a4.2,4.2,0,0,0,8.392,0v-55.21A4.013,4.013,0,0,0,586.3,349.2Z" transform="translate(-582.1 -349.2)" fill="#272727"/></g><g transform="translate(952.867)"><path d="M502.814,447.722l-31.58-31.8a4.134,4.134,0,0,1,0-5.742,3.657,3.657,0,0,1,2.871-1.1,4.2,4.2,0,0,1,2.871,1.1l31.8,31.8a4.134,4.134,0,0,1,0,5.742A4.413,4.413,0,0,1,502.814,447.722Z" transform="translate(-469.854 -377.716)" fill="#272727"/><path d="M509.3,470.422a4.193,4.193,0,0,1-4.2-4.2V421.4a4.2,4.2,0,1,1,8.392,0v44.83A4.511,4.511,0,0,1,509.3,470.422Z" transform="translate(-427.53 -417.2)" fill="#272727"/><path d="M532.476,447.022a4.06,4.06,0,0,1-5.742-5.742l31.8-31.8a3.657,3.657,0,0,1,2.871-1.1,4.651,4.651,0,0,1,2.871,1.1,4.134,4.134,0,0,1,0,5.742Z" transform="translate(-402.788 -375.47)" fill="#272727"/><path d="M509,285.6a4.193,4.193,0,0,1,4.2,4.2v44.83a4.2,4.2,0,1,1-8.392,0V289.8A4.061,4.061,0,0,1,509,285.6Z" transform="translate(-427.893 5.024)" fill="#272727"/><path d="M502.935,301.679a3.656,3.656,0,0,1,2.871-1.1,4.2,4.2,0,0,1,2.871,1.1,4.134,4.134,0,0,1,0,5.742l-31.8,31.8a4.06,4.06,0,0,1-5.742-5.742Z" transform="translate(-469.975 -29.605)" fill="#272727"/><path d="M529.605,299.875a4.651,4.651,0,0,1,2.871,1.1l31.8,31.8a4.06,4.06,0,0,1-5.742,5.742l-31.8-31.8a4.134,4.134,0,0,1,0-5.742A4.65,4.65,0,0,1,529.605,299.875Z" transform="translate(-402.788 -27.359)" fill="#272727"/></g><path d="M410.021,355.3h68.46v36h-68.46A16.069,16.069,0,0,1,393.9,375.176v-3.533A16.119,16.119,0,0,1,410.021,355.3Z" transform="translate(390.963 -201.375)" fill="#f1f2f2"/><path d="M410.142,356.3H478.6v11.042H417.871a16.069,16.069,0,0,0-16.121,16.121V387a14.578,14.578,0,0,0,.221,3.092,16.244,16.244,0,0,1-8.171-14.134v-3.533A16.4,16.4,0,0,1,410.142,356.3Z" transform="translate(390.842 -202.375)" fill="#bcbec0"/><path d="M412.317,397.889h68.46a4.193,4.193,0,0,0,4.2-4.2v-36a4.193,4.193,0,0,0-4.2-4.2h-68.46A20.264,20.264,0,0,0,392,373.817v3.533A20.313,20.313,0,0,0,412.317,397.889Zm64.485-8.171H412.317a12.254,12.254,0,0,1-12.146-12.146v-3.533a12.254,12.254,0,0,1,12.146-12.146H476.8Z" transform="translate(388.667 -203.992)" fill="#272727"/><path d="M435.171,342.9h24.292v90.986H435.171A13.525,13.525,0,0,1,421.7,420.415V356.371A13.384,13.384,0,0,1,435.171,342.9Z" transform="translate(424.556 -216.58)" fill="#f1f2f2"/><path d="M435.171,342.8h11.263a13.525,13.525,0,0,0-13.471,13.471v64.264a13.525,13.525,0,0,0,13.471,13.471H435.171A13.525,13.525,0,0,1,421.7,420.535V356.271A13.384,13.384,0,0,1,435.171,342.8Z" transform="translate(424.556 -216.48)" fill="#bcbec0"/><path d="M437.346,440.378h24.292a4.193,4.193,0,0,0,4.2-4.2V345.2a4.193,4.193,0,0,0-4.2-4.2H437.346A17.483,17.483,0,0,0,419.9,358.446v64.264A17.531,17.531,0,0,0,437.346,440.378Zm20.1-8.171H437.125a9.331,9.331,0,0,1-9.275-9.275V358.667a9.331,9.331,0,0,1,9.275-9.275h20.317Z" transform="translate(422.381 -218.876)" fill="#272727"/><g transform="translate(862.378 140.012)"><line y2="54.989" transform="translate(4.196 4.417)" fill="#fff"/><path d="M433.2,412.581a4.193,4.193,0,0,0,4.2-4.2V353.4a4.2,4.2,0,0,0-8.392,0v55.21A4.152,4.152,0,0,0,433.2,412.581Z" transform="translate(-429 -349.2)" fill="#272727"/></g><g transform="translate(879.824 88.777)"><path d="M525.711,477.962H455.7a17.012,17.012,0,0,1-17-17V347a17.012,17.012,0,0,1,17-17h70.006Z" transform="translate(-434.725 -320.946)" fill="#f1f2f2"/><rect width="24.513" height="147.742" transform="translate(69.344 9.275)" fill="#bcbec0"/><path d="M527.886,328.2H457.88a21.113,21.113,0,0,0-20.98,20.98V463.133a21.113,21.113,0,0,0,20.98,20.98h70.006a4.193,4.193,0,0,0,4.2-4.2V332.175A4.152,4.152,0,0,0,527.886,328.2ZM457.88,475.942a12.818,12.818,0,0,1-12.809-12.809V349.18a12.818,12.818,0,0,1,12.809-12.809h65.81v139.57H457.88Z" transform="translate(-436.9 -323.121)" fill="#272727"/><path d="M498.634,340.729c0-7.288-5.521-13.029-12.367-13.029h0c-6.846,0-12.367,5.963-12.367,13.029V472.571c0,7.288,5.521,13.03,12.367,13.03h0c6.846,0,12.367-5.963,12.367-13.03Z" transform="translate(-392.189 -323.504)" fill="#f1f2f2"/><path d="M482.884,485.6a11.872,11.872,0,0,1-6.183-1.767,12.9,12.9,0,0,0,6.183-11.263V340.729a12.9,12.9,0,0,0-6.183-11.263,11.872,11.872,0,0,1,6.183-1.767c6.846,0,12.367,5.963,12.367,13.03V472.571C495.251,479.637,489.73,485.6,482.884,485.6Z" transform="translate(-388.806 -323.504)" fill="#bcbec0"/><path d="M488.442,325.8c-9.054,0-16.342,7.729-16.342,17.225V474.867c0,9.5,7.288,17.225,16.342,17.225s16.342-7.729,16.342-17.225V343.025C504.784,333.529,497.5,325.8,488.442,325.8Zm0,157.9c-4.638,0-8.171-3.975-8.171-9.054V342.8c0-4.858,3.754-9.054,8.171-9.054,4.638,0,8.171,3.975,8.171,9.054V474.646C496.613,479.725,492.859,483.7,488.442,483.7Z" transform="translate(-394.365 -325.8)" fill="#272727"/><g transform="translate(25.617 51.456)"><path d="M480.963,382.392H452.7a4.2,4.2,0,0,1,0-8.392h28.267a4.2,4.2,0,1,1,0,8.392Z" transform="translate(-448.5 -374)" fill="#272727"/><path d="M452.7,365.7h28.267a4.2,4.2,0,0,1,0,8.392H452.7a4.193,4.193,0,0,1-4.2-4.2A4.344,4.344,0,0,1,452.7,365.7Z" transform="translate(-448.5 -347.37)" fill="#272727"/><path d="M452.7,357.4h28.267a4.2,4.2,0,0,1,0,8.392H452.7a4.2,4.2,0,1,1,0-8.392Z" transform="translate(-448.5 -320.741)" fill="#272727"/><path d="M452.7,349.2h28.267a4.2,4.2,0,0,1,0,8.392H452.7a4.193,4.193,0,0,1-4.2-4.2A4.344,4.344,0,0,1,452.7,349.2Z" transform="translate(-448.5 -294.432)" fill="#272727"/></g></g></g></g></g></svg>