<?xml version="1.0" encoding="utf-8"?>
<!-- Generator: Adobe Illustrator 22.0.1, SVG Export Plug-In . SVG Version: 6.00 Build 0)  -->
<svg version="1.1" id="Layer_1" xmlns="http://www.w3.org/2000/svg" xmlns:xlink="http://www.w3.org/1999/xlink" x="0px" y="0px" width="200" height="100"
	 viewBox="0 0 265.3 105.2" style="enable-background:new 0 0 265.3 105.2;" xml:space="preserve">
<style type="text/css">
	.st0{enable-background:new    ;}
	.st1{fill:#383F45;}
	.st2{fill:#FFC400;}
	.st3{fill:#FF318B;}
	.st4{fill:#25252D;}
	.st5{fill:#2EDCE3;}
</style>
<g class="st0">
	<path class="st1" d="M131.6,40.9v4.4h-6.3v27.9c0,1.7,0.6,2.6,1.7,2.6c0.8,0,1.3-0.6,1.4-1.8l4.1,0.4c-1.1,4.1-4.7,6.2-10.7,6.2
		c-7.2,0-10.7-3-10.7-9.1V45.3h-4.8v-4.4h4.8v-7c4.9-1.4,9.7-3.3,14.3-5.9v12.8H131.6z"/>
	<path class="st1" d="M164.6,65.8l5.7,1.7c-0.6,9.1-6,13.6-16.1,13.6c-13.1,0-19.7-6.5-19.7-19.6c0-6.4,1.7-11.6,5.2-15.6
		c3.5-4.1,8-6.1,13.4-6.1c11.4,0,17.1,7.3,17.1,22h-20.8c0,10.3,2.6,15.5,7.9,15.5c4.9,0,7.3-2.9,7.3-8.8
		C164.7,67.7,164.7,66.8,164.6,65.8z M149.5,57.3h8.5c0-9.2-1.4-13.7-4.1-13.7c-2.5,0-3.9,3.4-4.2,10.2L149.5,57.3z"/>
	<path class="st1" d="M198,40.9v4.4h-6.3v27.9c0,1.7,0.6,2.6,1.7,2.6c0.8,0,1.3-0.6,1.4-1.8l4.1,0.4c-1.1,4.1-4.7,6.2-10.7,6.2
		c-7.2,0-10.7-3-10.7-9.1V45.3h-4.8v-4.4h4.8v-7c4.9-1.4,9.7-3.3,14.3-5.9v12.8H198z"/>
	<path class="st1" d="M242.6,78.8c-3.5,1.4-6.9,2-10.2,2c-4.9,0-7.9-1.5-9.1-4.6c-2.4,3.2-5.8,4.8-10.2,4.8
		c-8.3,0-12.5-3.9-12.5-11.6c0-5.9,3.8-10,11.4-12.3c7-2.2,10.5-4.8,10.5-7.9c0-4-2-6.1-6-6.1c-4.6,0-7,2-7,5.9
		c0,1.2,0.4,2.8,1.1,4.8l-7.1-1.4c-0.2-1.2-0.3-2.4-0.3-3.4c0-6.3,5.7-9.4,17.1-9.4c10.8,0,16.3,2.9,16.3,8.8v23.9
		c0,2.4,0.8,3.7,2.4,3.7c0.5,0,1.2-0.3,2.2-0.8L242.6,78.8z M222.4,56.5c-0.9,1-1.9,1.9-3.1,2.5c-2.9,1.7-4.4,4.6-4.4,8.7
		c0,5.2,1,7.8,3,7.8c3,0,4.5-2.6,4.5-7.7V56.5z"/>
	<path class="st1" d="M253,67.2c4.6,0,6.9,2.3,6.9,6.9c0,4.6-2.3,6.9-6.9,6.9c-4.6,0-6.9-2.3-6.9-6.9
		C246.1,69.5,248.4,67.2,253,67.2z"/>
</g>
<g id="Group_1678" transform="translate(29)">
	<path id="Path_6838" class="st2" d="M20.6,99.7L20.6,99.7c-0.2,0-0.4,0-0.6,0h0c-0.2,0-0.4,0-0.5,0h-0.2c-0.3,0-0.7,0-1,0
		c-0.1,0-0.2,0-0.3,0c-0.2,0-0.5,0-0.7-0.1c-0.1,0-0.2,0-0.3,0c-0.2,0-0.5-0.1-0.7-0.1c-0.1,0-0.2,0-0.3-0.1c-0.7-0.2-1.4-0.3-2-0.6
		l-0.3-0.1c-0.4-0.1-0.7-0.3-1-0.4c-2-1-3.8-2.3-5.3-4c-0.2-0.2-0.3-0.4-0.5-0.5c-0.2-0.2-0.3-0.4-0.5-0.7c0-0.1-0.1-0.1-0.1-0.2
		c-0.1-0.2-0.2-0.3-0.3-0.5c-0.1-0.1-0.1-0.2-0.2-0.2c-0.1-0.2-0.2-0.3-0.3-0.5c0-0.1-0.1-0.1-0.1-0.2C5,91,4.8,90.5,4.6,90
		c0-0.1-0.1-0.2-0.1-0.2c-0.1-0.2-0.1-0.3-0.2-0.5c0-0.1-0.1-0.2-0.1-0.3c-0.1-0.2-0.1-0.4-0.2-0.5c0-0.1,0-0.2-0.1-0.2
		c-0.1-0.5-0.3-1-0.4-1.6c0-0.1,0-0.2,0-0.3c0-0.2-0.1-0.4-0.1-0.6c0-0.1,0-0.2,0-0.3c0-0.2,0-0.4,0-0.6c0-0.1,0-0.2,0-0.3
		c0-0.3,0-0.5,0-0.8V16.3c0.1-8.9-7-16.3-16-16.4s-16.3,7-16.4,16v56.6c0,1.5,0.1,3.1,0.3,4.6c0.1,1.2,0.4,2.4,0.6,3.6
		c0.5,2,1.2,3.9,2.1,5.8c0.9,1.8,2,3.6,3.2,5.2c1.3,1.6,2.7,3.2,4.2,4.5c1.6,1.4,3.3,2.6,5.1,3.7c1.8,1.1,3.8,2.1,5.8,2.8
		c2.1,0.8,4.2,1.4,6.4,1.8l0,0c4.8,0.9,9.7,0.8,14.4-0.1c2.4-0.5,4.8-1.2,7-2.2c2.2-0.9,4.3-2.1,6.2-3.5c1.3-1,2.5-2.1,3.7-3.3
		C27.5,97.9,24.2,99.4,20.6,99.7z"/>
	<path id="Path_6839" class="st2" d="M20.6,99.7c-0.2,0-0.4,0-0.6,0h0c-0.2,0-0.4,0-0.5,0h-0.2c-4.6,0-9-2-12-5.5
		c-0.2-0.2-0.3-0.4-0.5-0.5c-2.2-2.8-3.4-6.3-3.4-9.8V16.3c0-8.9-7.2-16.2-16.1-16.2c-8.8,0-16,7-16.2,15.8v56.6
		c0,1.5,0.1,3.1,0.3,4.6c0.1,1.2,0.4,2.4,0.6,3.6c0.5,2,1.2,3.9,2.1,5.8c0.9,1.8,2,3.6,3.2,5.2c1.3,1.6,2.7,3.2,4.2,4.5
		c1.6,1.4,3.3,2.6,5.1,3.7c1.8,1.1,3.8,2.1,5.8,2.8c2.1,0.8,4.2,1.4,6.4,1.8l0,0c4.8,0.9,9.7,0.8,14.4-0.1c2.4-0.5,4.8-1.2,7-2.2
		c2.2-0.9,4.3-2.1,6.2-3.5c1.3-1,2.5-2.1,3.7-3.3C30.1,95.5,24.3,99.4,20.6,99.7z"/>
	<path id="Path_6" class="st3" d="M19.2,68c8.8-0.2,16.1,6.7,16.3,15.5c0.2,8.8-6.7,16.1-15.5,16.3c-0.3,0-0.5,0-0.8,0l0,0
		c-8.8,0-15.9-7.1-15.9-15.9V68H19.2z"/>
	<path id="Path_6840" class="st4" d="M3.3,55.9V24.1H-13c-8.8,0-16,7.2-16,16c0,0,0,0,0,0v15.8L3.3,55.9z"/>
	<path id="Subtraction_4" class="st5" d="M19.6,55.9H3.3V24.1h16.2c8.8-0.1,16,7,16.1,15.8l0,0c0,8.8-7.1,15.9-15.9,15.9l0,0
		L19.6,55.9z"/>
</g>
</svg>
