<svg xmlns="http://www.w3.org/2000/svg" width="327.767" height="355.861" viewBox="0 0 327.767 355.861"><defs><style>.a{opacity:0.05;}</style></defs><g class="a" transform="translate(-63.968 -52.122)"><g transform="translate(120.157 108.311)"><path d="M248.695,126a107.636,107.636,0,0,0-78.5,181.336,81.448,81.448,0,0,1,13.7-27.509,79.6,79.6,0,1,1,129.616,0,81.439,81.439,0,0,1,13.7,27.509A107.636,107.636,0,0,0,248.695,126Z" transform="translate(-141 -126)"/></g><g transform="translate(63.968 52.122)"><path d="M244.884,66C154.518,66,81,139.518,81,229.884a164.049,164.049,0,0,0,88.695,145.588l-5.171-36.2a135.681,135.681,0,0,1-55.429-109.385c0-74.874,60.915-135.789,135.789-135.789s135.789,60.915,135.789,135.789a135.681,135.681,0,0,1-55.429,109.385l-5.171,36.2a164.049,164.049,0,0,0,88.695-145.588C408.767,139.518,335.249,66,244.884,66Z" transform="translate(-81 -66)"/></g><g transform="translate(185.71 164.499)"><path d="M253.141,186a42.141,42.141,0,1,0,42.142,42.141A42.189,42.189,0,0,0,253.141,186Zm0,56.189a14.047,14.047,0,1,1,14.047-14.047A14.063,14.063,0,0,1,253.141,242.189Z" transform="translate(-211 -186)"/></g><g transform="translate(165.071 248.782)"><path d="M299.168,297.647a62.779,62.779,0,0,0-109.575,50.011l7.337,51.362A42.349,42.349,0,0,0,238.649,435.2h26.186a42.349,42.349,0,0,0,41.718-36.182l7.337-51.361A62.746,62.746,0,0,0,299.168,297.647Zm-13.089,46.038-7.337,51.361a14.117,14.117,0,0,1-13.907,12.061H238.65a14.116,14.116,0,0,1-13.907-12.06l-7.337-51.362a34.685,34.685,0,1,1,68.674,0Z" transform="translate(-188.961 -276)"/></g></g></svg>