<svg xmlns="http://www.w3.org/2000/svg" width="404.34" height="291.707" viewBox="0 0 404.34 291.707"><defs><style>.a{opacity:0.05;}</style></defs><g class="a" transform="translate(0 -29.203)"><path d="M333.762,29.2H70.578A70.668,70.668,0,0,0,0,99.8V250.314a70.666,70.666,0,0,0,70.578,70.6H333.764a70.666,70.666,0,0,0,70.576-70.6V99.8A70.67,70.67,0,0,0,333.762,29.2Zm41.65,221.109a41.707,41.707,0,0,1-41.65,41.669H70.578a41.707,41.707,0,0,1-41.652-41.669V99.8A41.707,41.707,0,0,1,70.578,58.129H333.764A41.707,41.707,0,0,1,375.414,99.8V250.312Z" transform="translate(0 0)"/><path d="M207.507,133.746,100.295,63.07A14.463,14.463,0,0,0,77.871,75.145V216.516a14.461,14.461,0,0,0,22.424,12.074L207.507,157.9a14.462,14.462,0,0,0,0-24.15ZM106.8,189.655V102l66.475,43.82Z" transform="translate(72.297 29.226)"/></g></svg>